<?xml version="1.0" encoding="UTF-8" standalone="no"?>
<svg
   xmlns:dc="http://purl.org/dc/elements/1.1/"
   xmlns:cc="http://creativecommons.org/ns#"
   xmlns:rdf="http://www.w3.org/1999/02/22-rdf-syntax-ns#"
   xmlns:svg="http://www.w3.org/2000/svg"
   xmlns="http://www.w3.org/2000/svg"
   viewBox="0 0 972.08063 971.93909"
   height="971.93909"
   width="972.08063"
   id="svg904"
   version="1.1">
  <metadata
     id="metadata910">
    <rdf:RDF>
      <cc:Work
         rdf:about="">
        <dc:format>image/svg+xml</dc:format>
        <dc:type
           rdf:resource="http://purl.org/dc/dcmitype/StillImage" />
        <dc:title></dc:title>
      </cc:Work>
    </rdf:RDF>
  </metadata>
  <defs
     id="defs908" />
  <g
     transform="translate(-25.966596,-25.953497)"
     id="g914">
    <path
       id="path928"
       d="m 496.11603,995.95608 c -16.56091,-4.33714 0.0915,11.52662 -240.19639,-228.82107 C 16.329355,527.4851 32.679584,544.64429 28.070814,528.01298 c -2.805624,-10.12443 -2.805624,-23.90153 0,-34.02596 C 32.630359,477.53335 22.944921,487.9202 185.41312,325.25 267.39868,243.1625 335.16332,176 336.0012,176 c 0.83788,0 26.21871,24.71043 56.40184,54.91207 44.14196,44.16903 54.73972,55.27165 54.16948,56.75 -5.18072,13.43096 -6.45821,31.69009 -3.13706,44.83793 5.07007,20.07153 18.75417,37.57158 36.78986,47.04906 l 6.77468,3.56 V 517.0342 650.95935 l -4.25,2.16108 c -12.1498,6.17804 -24.3775,17.39279 -30.94291,28.37957 -15.8015,26.44279 -13.26507,60.51766 6.23995,83.82865 9.75817,11.66227 23.60933,20.56618 37.95296,24.39722 10.02737,2.67821 28.34319,2.39228 38,-0.59323 27.06966,-8.36888 45.92317,-28.66236 51.41368,-55.34048 6.24379,-30.33827 -6.72798,-60.08619 -33.66368,-77.20025 L 546,652.93854 V 521.02829 c 0,-95.11296 0.30784,-132.10051 1.10355,-132.59229 0.64371,-0.39783 21.9189,20.09949 51.0578,49.19099 56.07089,55.9797 50.98635,49.27144 47.27574,62.37301 -2.43447,8.5957 -2.44628,25.911 -0.0239,35 8.26723,31.01904 34.86418,52.8604 66.62398,54.71151 13.46549,0.78482 23.65948,-1.37611 36.75669,-7.79175 26.10452,-12.78722 41.626,-39.57137 39.91762,-68.88256 C 786.84537,481.01944 765.36299,454.86597 734,446.42933 c -8.97212,-2.4135 -26.23705,-2.41676 -35.38933,-0.007 l -6.88933,1.81417 -54.3347,-54.3684 -54.3347,-54.36841 1.68987,-6 c 2.69158,-9.55669 2.39754,-28.95243 -0.58367,-38.5 -8.09996,-25.94074 -27.35244,-44.40445 -52.83909,-50.67427 -9.02382,-2.2199 -25.73427,-2.19548 -34.07888,0.0498 -4.29089,1.15455 -6.80717,1.38078 -8,0.71925 C 486.63058,243.64753 378,134.61759 378,133.44565 c 0,-0.55651 21.7125,-22.6312 48.25,-49.054869 45.66448,-45.468608 48.65189,-48.237641 55.75,-51.674715 14.30759,-6.928078 30.34582,-8.591853 45.48883,-4.718923 16.96594,4.339156 -0.33657,-12.120225 240.59153,228.867847 240.84704,240.90701 223.60795,222.77646 227.9442,239.73102 3.84385,15.02934 2.17557,31.08047 -4.71909,45.40399 -3.54469,7.36403 -7.58224,11.4721 -222.70781,226.59766 C 553.4721,983.72323 549.36403,987.76078 542,991.30547 c -4.125,1.98558 -10.425,4.29748 -14,5.13756 -8.96195,2.10593 -22.78974,1.89475 -31.88397,-0.48695 z"
       style="fill:#fad1ca" />
    <path
       id="path926"
       d="m 504.5,997.05029 c -8.34145,-1.34101 -13.66541,-3.0651 -21,-6.8006 C 476.94923,986.9134 462.40759,972.5922 256.9077,767.0923 51.598374,561.78298 37.083025,547.0447 33.742881,540.5 28.654524,530.52985 26.663936,522.23449 26.663936,511 c 0,-11.23903 1.991962,-19.53568 7.082728,-29.5 C 37.070215,474.9947 47.823445,463.98754 185.90359,325.75 267.62294,243.9375 335.16837,177 336.00454,177 c 0.83617,0 25.99013,24.48511 55.8977,54.41135 48.0995,48.12954 54.29909,54.68135 53.69918,56.75 -3.69719,12.7489 -4.59987,18.01613 -4.58406,26.74861 0.0233,12.86864 2.05034,21.79758 7.39855,32.59004 6.97426,14.07378 17.02049,24.66684 30.58409,32.24885 3.575,1.99841 6.83061,4.10995 7.23469,4.69231 0.87845,1.26604 1.03385,262.69546 0.15751,264.97917 -0.33429,0.87115 -3.82179,3.25617 -7.75,5.30003 -9.77366,5.08529 -23.82213,19.10848 -28.83151,28.77964 -6.14669,11.86685 -7.94912,18.64587 -8.53947,32.11733 -0.66274,15.1232 1.10258,23.93703 7.24948,36.19496 18.22006,36.33378 61.43949,50.98645 97.9793,33.21788 18.99338,-9.23609 32.759,-25.82306 38.65304,-46.57524 3.15409,-11.10515 3.17244,-27.74231 0.0427,-38.75411 C 580.01942,681.48794 569.75725,667.53821 554,657.29534 c -3.025,-1.96638 -6.0625,-4.27327 -6.75,-5.12642 -0.98562,-1.22309 -1.25,-29.01319 -1.25,-131.39143 0,-118.41701 0.1416,-129.8946 1.6095,-130.45788 1.17289,-0.45008 15.00082,12.78276 50.9751,48.78138 L 647.9502,488.5 645.8399,495 c -3.00609,9.25913 -3.68057,28.12372 -1.3759,38.48277 4.68074,21.03905 20.27651,40.54549 40.00261,50.03337 20.26451,9.74683 45.7494,9.31071 65.6042,-1.12269 18.18928,-9.5582 31.44482,-25.98804 37.06304,-45.93852 2.86523,-10.1745 3.08745,-27.62944 0.47685,-37.45493 -6.99715,-26.33508 -27.37972,-46.48606 -53.77074,-53.15979 -6.78493,-1.71577 -10.25349,-1.98891 -20.26309,-1.59567 -6.64228,0.26094 -14.22908,1.08494 -16.85957,1.8311 l -4.7827,1.35666 -54.04025,-54.04026 -54.04026,-54.04026 1.73254,-6.42589 c 2.32778,-8.63362 2.3584,-26.04365 0.0623,-35.42589 -2.26853,-9.26956 -8.44948,-21.56735 -14.62072,-29.0898 -17.36357,-21.16538 -46.00788,-30.79685 -73.57553,-24.73931 l -7.60416,1.67089 -55.42426,-55.41751 C 403.94092,159.44464 379,134.04448 379,133.47947 c 0,-0.56501 21.4875,-22.45481 47.75,-48.643984 47.57522,-47.4424 47.78111,-47.631355 56.25,-51.62376 10.89938,-5.138189 17.34714,-6.618789 28.5,-6.544461 10.75153,0.07165 19.421,2.18689 29,7.075616 6.5447,3.340144 21.28298,17.855493 226.5923,223.164819 205.30933,205.30932 219.82467,220.0476 223.16482,226.5923 4.88873,9.579 7.00396,18.24847 7.07562,29 0.0742,11.13712 -1.40283,17.58423 -6.52942,28.5 l -3.99202,8.5 -218.65565,218.59229 C 563.7703,972.41842 549.04315,986.91775 542.5,990.25711 c -11.57657,5.90822 -26.69415,8.61076 -38,6.79318 z"
       style="fill:#f8c3b9" />
    <path
       id="path924"
       d="m 498,995.4944 c -3.025,-0.82762 -9.325,-3.35184 -14,-5.60938 L 475.5,985.7804 256.8598,767.1402 38.219595,548.5 34.119736,540 C 28.819396,529.01111 27,521.60038 27,511 c 0,-10.60796 1.821409,-18.01955 7.126792,-29 L 38.233707,473.5 186.35243,325.25 C 267.81773,243.7125 334.92919,177 335.48902,177 c 0.55982,0 25.52343,24.50866 55.47468,54.46369 l 54.45682,54.4637 -2.19015,8.35054 c -5.63012,21.46641 -3.0417,40.91087 7.91502,59.45831 5.14707,8.71293 17.0452,20.23376 26.60825,25.76449 l 8.25364,4.77343 -0.25364,133.0899 -0.25364,133.0899 -6.3164,3.48795 c -18.04637,9.96532 -30.7391,25.89492 -36.33664,45.60316 -3.1554,11.10976 -3.17255,27.74179 -0.04,38.76425 6.02981,21.21671 19.3893,37.35206 38.69299,46.7327 12.96961,6.30259 23.17837,8.425 36.95911,7.68383 30.64592,-1.64823 56.22219,-21.42625 66.24355,-51.22585 2.42893,-7.2227 2.69033,-9.40885 2.69033,-22.5 0,-13.0506 -0.26698,-15.29967 -2.67091,-22.5 -5.24949,-15.72347 -15.93325,-29.68404 -30.02747,-39.23718 L 547.5,652.38627 547.2463,521.19314 C 547.10676,449.03691 547.33346,390 547.75008,390 c 0.41662,0 22.98066,22.22656 50.1423,49.39236 l 49.38481,49.39237 -2.33859,8.35763 c -2.96097,10.58195 -3.25341,27.88429 -0.63984,37.85764 2.86631,10.93784 9.85611,23.84371 17.22338,31.80105 15.71837,16.97729 35.5238,25.08037 58.47786,23.9253 31.02167,-1.56105 56.60893,-21.21157 66.70266,-51.22635 2.41886,-7.19274 2.69389,-9.46316 2.72562,-22.5 0.0334,-13.73662 -0.12878,-14.96125 -3.08123,-23.26121 -1.71409,-4.81867 -4.63089,-11.32763 -6.48179,-14.46435 -4.56825,-7.74185 -17.99875,-21.17277 -25.54809,-25.5489 -17.26184,-10.00618 -38.20896,-13.0871 -56.22449,-8.26954 -3.38027,0.90392 -6.00437,1.1125 -7,0.5564 -0.87597,-0.48926 -25.18221,-24.50835 -54.01386,-53.37573 l -52.42119,-52.48616 1.81215,-9.62719 c 3.53878,-18.8001 0.46307,-37.84243 -8.60452,-53.27223 -1.85089,-3.14956 -7.19141,-9.59465 -11.86782,-14.32243 -7.11493,-7.19307 -10.05257,-9.35734 -18,-13.26125 -5.22359,-2.56591 -12.42244,-5.43376 -15.99744,-6.373 -8.61504,-2.26338 -27.21753,-2.25365 -35.5,0.0186 l -6,1.64605 -55.25,-55.22613 C 404.8625,159.35852 380,133.81069 380,132.95994 c 0,-0.85074 21.0375,-22.47976 46.75,-48.064465 41.97043,-41.761839 47.46566,-46.882209 53.75,-50.083435 12.33847,-6.285182 16.62017,-7.311613 30.5,-7.311613 13.8521,0 18.08663,1.011039 30.5,7.282185 6.57374,3.321006 20.31101,16.847359 225.59052,222.126868 205.27951,205.27951 218.80586,219.01678 222.12687,225.59052 6.27114,12.41337 7.28218,16.6479 7.28218,30.5 0,13.85211 -1.01104,18.08668 -7.2822,30.5 -3.32096,6.57362 -16.79011,20.25312 -221.12687,224.58031 -234.59375,234.58279 -219.75471,220.35752 -235.8152,226.06093 -7.77868,2.76237 -26.43276,3.49881 -34.2753,1.35316 z"
       style="fill:#f6a99b" />
    <path
       id="path922"
       d="m 504.5,996.3682 c -6.26423,-0.96815 -14.24829,-3.67421 -21,-7.1176 C 476.95929,985.91482 462.23855,971.43674 259.14133,768.59029 100.22126,609.86645 40.612114,549.72096 37.428897,544.88297 25.173091,526.25607 23.964709,503.84101 34.092826,483 L 38.223575,474.5 186.35388,326.25 C 267.82554,244.7125 335.16838,178 336.00462,178 c 1.64463,0 109.00379,106.9052 108.98248,108.52165 -0.007,0.53809 -0.95149,3.90335 -2.09865,7.47835 -2.86341,8.92348 -3.60904,26.03314 -1.55484,35.6781 4.51745,21.21045 16.31801,37.80835 35.16639,49.46272 l 9,5.56491 0.25366,132.59068 0.25366,132.59069 -7.25366,3.7846 c -5.12083,2.67179 -9.93028,6.43733 -16.35673,12.80645 -10.06549,9.97568 -15.04653,17.84302 -19.21875,30.3552 -2.23696,6.7085 -2.56407,9.41633 -2.61732,21.66665 -0.0521,11.98979 0.2754,15.0769 2.281,21.5 6.32632,20.26053 18.9082,35.42576 37.37142,45.04462 22.93118,11.94655 52.38462,10.70983 73.74573,-3.09652 39.19523,-25.33311 46.25795,-78.40088 15.06203,-113.17285 -2.82481,-3.14862 -8.93514,-8.25261 -13.57852,-11.34221 L 547,651.81558 V 521.40779 C 547,416.98915 547.25186,391 548.26379,391 c 0.69509,0 23.2581,22.01127 50.14002,48.91394 39.43378,39.46421 48.73606,49.26865 48.15076,50.75 C 643.91689,497.33962 642,508.30277 642,516.71256 c 0,32.27265 20.05345,60.6039 50.0096,70.65288 39.65975,13.30411 81.90181,-7.73361 94.8744,-47.2501 9.34185,-28.45669 0.0742,-60.88711 -22.79506,-79.76728 C 746.14973,445.538 723.25618,439.93413 699.9098,444.63833 l -8.13082,1.63832 -53.52499,-53.52498 -53.52498,-53.52499 1.79917,-7.34169 c 2.55028,-10.40662 2.35838,-25.09563 -0.46215,-35.37655 C 579.98825,274.35473 566.7764,258.33132 546.5,248.52251 531.10529,241.07524 515.217,239.151 497.91165,242.63795 l -8.12896,1.63795 -54.89134,-54.88454 C 404.70111,159.20486 380,134.04441 380,133.47925 c 0,-0.56516 21.2625,-22.20125 47.25,-48.0802 42.35666,-42.17974 47.97494,-47.423757 54.25,-50.636152 10.86347,-5.561342 17.48607,-7.171251 29.5,-7.171251 11.99695,0 18.60688,1.603356 29.5,7.155746 6.54824,3.337737 21.13973,17.707736 226.0923,222.660307 204.95257,204.95257 219.32257,219.54406 222.66031,226.0923 5.55239,10.89312 7.15574,17.50305 7.15574,29.5 0,11.99696 -1.60336,18.6069 -7.15575,29.5 -3.33759,6.54793 -17.6528,21.08478 -221.66031,225.09229 C 563.41548,971.7691 549.05336,985.91182 542.5,989.24594 c -3.85,1.95875 -9.475,4.29082 -12.5,5.18237 -5.64252,1.66302 -20.15036,2.76669 -25.5,1.93989 z"
       style="fill:#f59785" />
    <path
       id="path920"
       d="m 505.75466,995.92634 c -9.18061,-1.03462 -18.39058,-4.25572 -25.9451,-9.07403 C 470.63714,981.0021 44.902781,555.49294 38.04944,545.32587 24.559295,525.31297 24.195754,498.11958 37.146833,477.80956 40.078833,473.21156 80.954045,431.69185 187.83047,324.75 268.4936,244.0375 334.94434,178 335.49879,178 c 0.55445,0 25.41064,24.4125 55.23597,54.25 l 54.22789,54.25 -1.98746,6.35881 c -6.03899,19.32153 -3.41846,42.66589 6.74922,60.12392 5.32114,9.13644 18.1288,21.81928 26.77559,26.51462 3.85,2.09061 7.5625,4.49497 8.25,5.34301 1.83172,2.25946 1.83172,262.07066 0,264.29599 -0.6875,0.83524 -4.61565,3.47762 -8.72922,5.87197 C 461.434,663.4987 448.99463,678.85176 443.6187,695 c -15.55083,46.7116 16.15445,94.56047 65.33939,98.60865 14.91655,1.22771 32.78415,-3.41628 45.71599,-11.88212 45.40085,-29.72168 45.46937,-95.41677 0.13067,-125.28604 L 548,651.9575 V 521.23257 390.50765 l 49.05214,48.99618 c 42.56896,42.52039 48.99612,49.32659 48.62838,51.49617 -0.23307,1.375 -1.22487,5.425 -2.204,9 -2.38278,8.7 -2.38095,25.07865 0.004,34.5 5.45842,21.56398 19.8387,39.6624 38.9816,49.06064 12.96631,6.36584 19.61292,7.87487 34.53804,7.84148 11.44203,-0.0256 13.30406,-0.30273 22,-3.27423 25.27711,-8.63749 43.76743,-28.60979 50.11151,-54.12789 1.95727,-7.87282 1.74415,-26.94206 -0.39116,-35 -0.94736,-3.575 -3.82115,-10.775 -6.38621,-16 -3.9401,-8.02595 -6.07342,-10.90482 -13.74894,-18.55384 -7.62276,-7.59644 -10.61441,-9.80569 -18.5852,-13.72463 -5.225,-2.56894 -12.65,-5.41319 -16.5,-6.32055 -9.23432,-2.17632 -24.88262,-2.1349 -34.38548,0.091 l -7.38548,1.72995 -52.42593,-52.36097 C 610.469,365.06243 586.4942,340.81538 586.02593,339.97863 c -0.51341,-0.9174 -0.23287,-3.69632 0.70668,-7 2.23772,-7.86837 2.23633,-27.57663 -0.003,-35.97864 -7.16717,-26.89701 -29.0007,-48.38518 -55.49994,-54.62204 -8.79101,-2.06905 -24.77727,-2.04333 -33.69369,0.0542 l -6.96371,1.63817 -55.52238,-55.52238 -55.52238,-55.52238 43.98609,-44.079963 C 447.70626,64.701638 470.425,42.644429 474,39.929598 c 19.80671,-15.041084 48.8305,-16.165715 70.47402,-2.730769 6.46138,4.010821 433.91576,430.862301 440.2311,439.610191 14.48276,20.06121 15.33308,48.35037 2.09411,69.665 C 982.99544,552.59807 559.56275,976.80029 550,984.06708 c -7.573,5.75476 -19.37683,10.65106 -27.67102,11.47812 -3.20594,0.31968 -6.72898,0.70726 -7.82898,0.86128 -1.1,0.15402 -5.0354,-0.062 -8.74534,-0.48014 z"
       style="fill:#f38672" />
    <path
       id="path918"
       d="m 498,994.00802 c -4.125,-1.10387 -10.425,-3.43488 -14,-5.18003 C 477.99601,985.89713 460.7428,968.89934 257.90233,766.0775 41.078002,549.27309 38.258159,546.40358 34.622529,538.86509 25.486271,519.92105 26.074276,498.32646 36.225383,480 38.580985,475.74728 72.745605,440.99363 186.87799,326.75 268.06136,245.4875 334.93926,179 335.49553,179 c 0.55628,0 25.22016,24.21186 54.80862,53.80412 l 53.7972,53.80413 -2.28268,7.94587 c -2.96689,10.32754 -3.21325,29.49447 -0.50702,39.44588 5.48495,20.16936 18.54005,36.74484 37.18835,47.21641 l 6,3.36918 0.25062,132.45721 0.25062,132.4572 -5.74487,3 c -17.90871,9.35201 -32.4069,27.52388 -37.89726,47.5 -2.46215,8.95827 -2.48956,29.0258 -0.0519,37.96835 5.8808,21.57338 21.04378,39.64153 41.19275,49.08514 11.70608,5.48652 21.16193,7.28615 35.33861,6.72562 13.62624,-0.53878 23.28864,-3.32757 34.66139,-10.00407 8.96308,-5.26188 21.01316,-17.31196 26.27504,-26.27504 20.32198,-34.61644 10.07344,-79.31581 -23.15005,-100.9697 L 548,651.5606 V 521.7803 C 548,450.40113 548.33924,392 548.75387,392 c 0.41462,0 22.46636,21.71596 49.00386,48.25769 l 48.25,48.2577 -2.58425,9.9923 c -2.26743,8.76728 -2.52554,11.40218 -2.10531,21.49231 1.21101,29.07763 16.88622,52.66259 43.28941,65.13335 12.08288,5.70699 19.51216,7.13916 34.39242,6.62997 14.52295,-0.49696 23.75907,-3.09564 35.5,-9.98828 8.96308,-5.26188 21.01316,-17.31196 26.27504,-26.27504 6.79646,-11.57709 9.47731,-20.99956 10.00656,-35.17048 0.56501,-15.1282 -1.14706,-23.65692 -7.22888,-36.01086 -15.33469,-31.14921 -47.73569,-47.2524 -82.07152,-40.78929 l -9.63573,1.81376 -53.03414,-53.03415 -53.03415,-53.03414 1.61141,-7.08483 c 2.25451,-9.91233 2.1113,-25.91553 -0.31688,-35.40961 -9.92941,-38.82365 -47.83451,-62.73439 -87.58861,-55.25139 l -9.63383,1.8134 -54.42463,-54.41776 C 405.49109,158.99487 381,134.0488 381,133.48892 c 0,-1.94401 92.40988,-93.101854 97.75606,-96.431584 7.47911,-4.658173 19.18599,-8.172651 29.27603,-8.788846 10.15015,-0.619866 21.66229,1.866594 31.96791,6.904619 5.99605,2.93124 23.38647,20.046384 224.30283,220.752251 144.478,144.32664 219.13921,219.59458 221.7724,223.57464 6.38017,9.6436 9.27831,19.86355 9.35802,33 0.0841,13.85432 -2.63553,23.54322 -9.52218,33.92395 -3.5675,5.37752 -56.38866,58.7066 -220.05269,222.16863 C 626.21674,908.06187 548.65205,984.83328 545.24394,986.95071 532.29609,994.99512 512.6534,997.92935 498,994.00802 Z"
       style="fill:#f0684f" />
    <path
       id="path916"
       d="M 497.11603,993.01691 C 480.4744,988.52154 496.9155,1004.1799 258.36499,765.63233 19.034997,526.30527 35.334923,543.44939 30.997143,526.48883 c -2.566277,-10.03405 -2.566277,-20.94361 0,-30.97766 C 35.275271,478.78385 26.094088,488.6636 187.36115,327.25 268.27514,246.2625 334.93413,180 335.49225,180 c 0.55812,0 25.06475,24.05314 54.45919,53.45143 l 53.44442,53.45143 -1.65979,5.29857 c -10.88811,34.75818 4.57743,72.82916 36.49634,89.84176 L 484,385.11728 v 131.8459 131.8459 l -5.75,3.23798 c -12.72767,7.1673 -23.72353,17.96307 -30.50809,29.95294 -14.91874,26.36487 -11.92476,61.00059 7.33005,84.7973 13.68171,16.909 33.16285,26.80479 54.97388,27.92496 21.78482,1.11883 40.37436,-5.66387 56.04875,-20.45031 15.35809,-14.48804 22.64674,-30.48119 23.59433,-51.77195 0.447,-10.04331 0.18892,-13.44331 -1.58278,-20.85154 C 583.69817,683.21684 571.49634,665.77479 556.17211,656 l -7.05478,-4.5 -0.0587,-128.75 C 549.0264,451.9375 549.33928,394 549.75395,394 c 0.41467,0 22.09056,21.34016 48.16865,47.42259 l 47.41471,47.42259 -2.39564,7.82741 c -3.08147,10.06822 -3.35337,29.12174 -0.5604,39.26956 9.43676,34.28696 38.94474,56.993 74.11873,57.03348 20.6465,0.0238 39.68626,-8.12717 54.13695,-23.17607 14.24716,-14.83693 21.34076,-32.30921 21.35604,-52.60215 0.0262,-34.77913 -22.87477,-64.4099 -57.05084,-73.81614 -8.506,-2.34109 -29.04086,-2.39126 -36.94215,-0.0903 l -5.5,1.60171 -52.92128,-52.86882 -52.92129,-52.86882 1.67129,-7.60596 c 11.61147,-52.84345 -33.6653,-100.07092 -87.33415,-91.09685 l -10.31519,1.72483 -54.58701,-54.58702 -54.58701,-54.58701 44.49732,-44.558347 C 473.64059,40.741478 478.89223,36.248591 492.05027,31.939623 498.19684,29.926755 501.51166,29.5 511,29.5 c 14.14489,0 22.89921,2.520428 33.44973,9.630408 5.21105,3.511712 63.55353,61.310802 223.64333,221.560372 C 980.50519,473.31489 984.75594,477.64477 988.30256,485 c 9.57355,19.85426 8.68491,42.48429 -2.36646,60.26373 -4.56699,7.34738 -430.10603,433.21429 -438.95867,439.29688 -9.73068,6.6859 -19.18981,9.67368 -31.97743,10.10047 -8.1908,0.27337 -12.12391,-0.0882 -17.88397,-1.64417 z"
       style="fill:#ef5032" />
  </g>
</svg>
